<svg xmlns="http://www.w3.org/2000/svg" viewBox="0 0 512 512">
  <defs>
    <linearGradient id="grad1" x1="0%" y1="0%" x2="100%" y2="100%">
      <stop offset="0%" style="stop-color:#4A90E2;stop-opacity:1" />
      <stop offset="100%" style="stop-color:#357ABD;stop-opacity:1" />
    </linearGradient>
  </defs>

  <!-- Background -->
  <rect width="512" height="512" fill="url(#grad1)" rx="100"/>

  <!-- Color palette icon -->
  <g transform="translate(128, 128)">
    <!-- Palette shape -->
    <path d="M 128 0 C 57.3 0 0 57.3 0 128 C 0 198.7 57.3 256 128 256 C 141.3 256 153.6 254.1 165.3 250.7 C 176.1 247.7 184 237.7 184 226.3 C 184 220.6 181.8 215.4 178.3 211.4 C 174.9 207.6 172.8 202.7 172.8 197.3 C 172.8 185.9 181.9 176.8 193.3 176.8 L 213.3 176.8 C 243.2 176.8 256 149.3 256 128 C 256 57.3 198.7 0 128 0 Z"
          fill="white" opacity="0.95"/>

    <!-- Color dots -->
    <circle cx="80" cy="96" r="20" fill="#FF6B6B"/>
    <circle cx="128" cy="64" r="20" fill="#4ECDC4"/>
    <circle cx="176" cy="96" r="20" fill="#FFD93D"/>
    <circle cx="96" cy="144" r="20" fill="#A8E6CF"/>
  </g>
</svg>
